<?xml version="1.0" encoding="UTF-8"?><svg xmlns="http://www.w3.org/2000/svg" viewBox="0 0 170 170"><defs><style>.cls-1{fill:#836645;}.cls-2{opacity:.2;}.cls-2,.cls-3{mix-blend-mode:multiply;}.cls-3{opacity:.4;}.cls-4{fill:#b7d08e;}.cls-5{isolation:isolate;}.cls-6{fill:#cea277;}.cls-7{fill:#3b693d;}.cls-8{fill:#a57f56;}.cls-9{fill:#fff;}.cls-10{fill:#a07c54;}.cls-11{fill:#262424;}.cls-12{fill:#bf9064;}</style></defs><g class="cls-5"><g id="Calque_3"><circle class="cls-4" cx="85" cy="85" r="83.12"/><path class="cls-8" d="M38.2,22.86c-2.2-1.92-5.13-1.51-6.78.87-9.3,13.47-12.29,28.95-2.88,42.9,4.44,6.58,20.06,1.52,23.65-4.64,7.41-12.74-4.44-30.78-14-39.13Z"/><path class="cls-1" d="M38.97,35.61c-1.24-1.09-2.9-.86-3.83.49-5.25,7.61-6.95,16.36-1.62,24.23.23.35.51.59.81.77,2.59,3.58,10.52.09,12.55-3.39,4.19-7.2-2.5-17.39-7.91-22.1Z"/><path class="cls-8" d="M132.59,22.86c2.2-1.92,5.13-1.51,6.78.87,9.3,13.47,12.25,28.92,2.88,42.9-5.73,8.54-20.06,1.52-23.65-4.64-7.41-12.74,4.44-30.78,13.99-39.13Z"/><path class="cls-1" d="M131.81,35.61c1.24-1.09,2.9-.86,3.83.49,5.25,7.61,6.96,16.36,1.63,24.23-.23.35-.51.59-.81.77-2.6,3.58-10.52.09-12.55-3.39-4.19-7.2,2.51-17.39,7.91-22.1Z"/><path class="cls-12" d="M101.37,148.42c8.13.39,16.69,3.35,21.42-5.39,1.8-3.32,2.16-14.68,8.23-9.98,3.3,2.55,5.6,6.77,9.9,7.82,5.56,1.35,8.84-4.34,10.81-8.55,1.86-3.96-4.36-6.67-6.21-2.71-2.25,4.81-2.65,5.68-6.28,2.03-2.81-2.82-5.42-5.73-9.51-6.54-4.72-.93-8.89,2.99-10.74,6.88-1.25,2.61-1.32,5.66-2.41,8.34-1.91,4.66-10.48,1.58-14.16,1.41-4.33-.21-5.41,6.49-1.05,6.69h0Z"/><path class="cls-10" d="M109.57,93.1h-53.88c-3.91,8.37-6.23,18.62-6.23,29.72,0,16.3,4.99,30.81,12.74,40.14h13.13c-.37-1.42-.58-2.98-.58-4.6,0-6.8,3.54-12.31,7.91-12.31s7.9,5.51,7.9,12.31c0,1.63-.21,3.18-.58,4.6h13.08c7.75-9.33,12.74-23.83,12.74-40.14,0-11.09-2.31-21.35-6.23-29.72Z"/><path class="cls-12" d="M119.9,55.51c-10.43-11.69-20.93-14.24-34.37-14.59v-.05h-.13c-.6,0-1.19,0-1.79.02-.59,0-1.18-.02-1.79-.02h-.13v.05c-13.43.35-23.94,2.9-34.36,14.59-11.7,13.12-21.34,19.05-37.72,20.12,3.5,7.96,4.74,15.76,9.54,22.82,4.99,7.34,9.23,13.12,16.18,18.8,14.38,11.73,30.33,20.81,48.28,19.35,17.94,1.46,33.9-7.62,48.28-19.35,6.95-5.68,11.19-11.46,16.18-18.8,4.81-7.06,6.04-14.86,9.54-22.82-16.38-1.07-26.02-7.01-37.72-20.12Z"/><path d="M77.64,163c0-.17.03-.33.03-.5,0-5.66-4.59-10.24-10.24-10.24s-10.24,4.59-10.24,10.24c0,.17.02.34.03.5h20.44Z"/><path d="M108.8,163c0-.17.03-.33.03-.5,0-5.66-4.59-10.24-10.25-10.24s-10.24,4.59-10.24,10.24c0,.17.01.34.03.5h20.44Z"/><path class="cls-1" d="M72.29,59.49v-17.81c-2.87.36-5.65,1.16-8.31,2.06v15.75c0,5.65,8.31,5.65,8.31,0Z"/><path class="cls-1" d="M86.83,59.49v-18.53c-.37-.01-.73-.03-1.11-.04v-.05h-.14c-.66,0-1.29,0-1.94.02-.64,0-1.28-.02-1.94-.02h-.14v.05c-1.03.03-2.04.06-3.04.11v18.46c0,5.65,8.31,5.65,8.31,0Z"/><path class="cls-1" d="M101.57,59.49v-16.32c-2.67-.67-5.43-1.51-8.31-1.8v18.12c0,5.65,8.31,5.65,8.31,0Z"/><polygon class="cls-6" points="62.9 72.74 71.78 105.92 95.41 105.92 102.73 73.52 62.9 72.74"/><path class="cls-6" d="M102.73,73.52c0,3.25-9.75,5.89-19.83,5.89s-19.99-3.42-19.99-6.67,9.9-5.12,19.99-5.12,19.83,2.64,19.83,5.9Z"/><path class="cls-2" d="M64.87,84.76c0,6.33-5.13,11.45-11.46,11.45s-11.45-5.13-11.45-11.45,5.13-11.46,11.45-11.46,11.46,5.13,11.46,11.46Z"/><path class="cls-7" d="M60.1,81.68c2.14,3.99.64,8.96-3.35,11.1-3.99,2.14-8.96.64-11.1-3.35-2.14-3.99-.64-8.96,3.35-11.1,3.99-2.14,8.96-.64,11.1,3.35Z"/><path d="M79.86,105.57c-.16,4.09.19,8.18,0,12.27-.23,4.84,7.28,4.82,7.51,0,.2-4.09-.16-8.18,0-12.27.19-4.84-7.32-4.83-7.51,0h0Z"/><path d="M70.65,106.83c.36,6.51,12.73,8.02,12.73,8.02,0,0,12.37-1.5,12.73-8.02.36-6.51-25.82-6.51-25.46,0Z"/><path class="cls-11" d="M61.07,85.17c0,2.92-2.37,5.29-5.29,5.29s-5.29-2.37-5.29-5.29,2.37-5.29,5.29-5.29,5.29,2.37,5.29,5.29Z"/><path class="cls-9" d="M58.77,83.28c0,.61-.5,1.11-1.11,1.11s-1.11-.5-1.11-1.11.5-1.11,1.11-1.11,1.11.5,1.11,1.11Z"/><path class="cls-2" d="M123.89,84.76c0,6.33-5.13,11.45-11.46,11.45s-11.45-5.13-11.45-11.45,5.13-11.46,11.45-11.46,11.46,5.13,11.46,11.46Z"/><path class="cls-7" d="M119.11,81.68c2.14,3.99.64,8.96-3.35,11.1-3.99,2.14-8.96.64-11.1-3.35-2.14-3.99-.64-8.96,3.35-11.1,3.99-2.14,8.96-.64,11.1,3.35Z"/><path class="cls-11" d="M120.09,85.17c0,2.92-2.37,5.29-5.29,5.29s-5.29-2.37-5.29-5.29,2.37-5.29,5.29-5.29,5.29,2.37,5.29,5.29Z"/><path class="cls-9" d="M117.79,83.28c0,.61-.5,1.11-1.11,1.11s-1.11-.5-1.11-1.11.5-1.11,1.11-1.11,1.11.5,1.11,1.11Z"/><path class="cls-9" d="M93.02,105.92c0,.73-.64,1.32-1.44,1.32s-1.44-.59-1.44-1.32.64-1.32,1.44-1.32,1.44.59,1.44,1.32Z"/><path class="cls-3" d="M83.64,40.88c-.31,0-.62,0-.93,0-.29,0-.57,0-.86,0h-.27v.05c-1.03.03-2.04.06-3.04.11v.02c-2.14.12-4.22.32-6.23.62h0s-.07,0-.1.01c-.05,0-.11.02-.16.03-1.42.19-2.81.49-4.18.85-1.1.28-2.19.61-3.26.98-.2.07-.4.13-.6.19h0c-3.38,1.24-6.63,2.98-9.8,5.39-1.67-10.09-9.37-20.5-15.98-26.27-2.2-1.92-5.13-1.51-6.78.87-9.3,13.47-12.29,28.95-2.88,42.9.8,1.18,1.96,1.99,3.35,2.48-6.37,3.88-13.31,5.93-22.27,6.52,3.5,7.96,4.74,15.76,9.54,22.82,4.99,7.34,9.23,13.12,16.18,18.8,4.59,3.75,9.34,7.22,14.27,10.17.68,11.64,3.9,22.14,8.8,30.2-.79,1.45-1.24,3.12-1.24,4.89,0,.17.02.34.03.5h20.44c0-.17.03-.33.03-.5,0-2.67-1.03-5.1-2.71-6.92.81-5.46,3.94-9.54,7.7-9.54.33,0,.65.04.96.1V40.88Z"/></g></g></svg>