<?xml version="1.0" encoding="UTF-8"?><svg xmlns="http://www.w3.org/2000/svg" viewBox="0 0 170 170"><defs><style>.cls-1{opacity:.2;}.cls-1,.cls-2{mix-blend-mode:multiply;}.cls-2{opacity:.4;}.cls-3{fill:#dfe0e1;}.cls-4{isolation:isolate;}.cls-5{fill:#fff;}.cls-6{fill:#262424;}.cls-7{fill:#664934;}.cls-8{fill:#845f44;}.cls-9{fill:#b55235;}</style></defs><g class="cls-4"><g id="Calque_3"><circle class="cls-9" cx="85" cy="85" r="83.12"/><path class="cls-8" d="M110.11,153.3s-.1-.2-.29-.56c-.17-.36-.48-.87-.77-1.55-.31-.67-.71-1.49-1.06-2.5-.35-1.01-.7-2.18-.84-3.65-.07-.74-.07-1.56.1-2.51.18-.94.53-2.04,1.4-3.12l.16-.2.08-.1.04-.05c.1-.09-.19.15.23-.2h.01s.18-.21.18-.21l.18-.19c.06-.06.08-.11.31-.26.35-.25.73-.48,1.12-.69.39-.2.6-.27.93-.4,1.19-.46,2.3-.58,3.31-.64,2.03-.1,3.8.14,5.44.44.83.16,1.6.28,2.32.44.35.07.7.14.99.18.17.03.28.04.4.05l.17.02h0c.09,0-.76-.04-.39-.02h.04s.07,0,.07,0h.15s1.2.03,1.2.03h.3s.13-.03.13-.03c.08-.02.16-.04.24-.05.27,0,.8-.14,1.27-.22.9-.31,1.81-.65,2.57-1.2.72-.55,1.44-1.16,1.88-1.87.45-.7.84-1.48.93-2.3.03-.2.08-.42.1-.63-.01-.21-.03-.42-.03-.63.03-.45-.09-.85-.18-1.26-.12-.86-.53-1.56-.76-2.23-.66-1.2-1.11-2.03-1.11-2.03,0,0,.21.04.61.15.38.13,1.01.24,1.73.57.66.41,1.64.78,2.46,1.65.45.4.91.87,1.28,1.48.2.29.4.61.6.93.17.34.3.71.45,1.09.61,1.53.73,3.43.37,5.35-.36,1.94-1.35,3.77-2.68,5.4-1.36,1.6-3.16,2.87-5.18,3.74-1.05.35-2.01.77-3.35.9l-.95.12-.47.05h-.3s-1.2,0-1.2,0h-.15s-.57-.03-.57-.03l-.42-.06c-.28-.04-.56-.08-.79-.13-.5-.09-.93-.2-1.37-.3-.84-.19-1.61-.45-2.32-.64-1.44-.41-2.72-.79-3.7-.98-.5-.11-.88-.13-1.08-.19-.02-.01-.16-.02-.1-.06.07-.05.13-.13.16-.21.05-.09-.06-.01-.13.03l-.23.13-.24.13h-.01c.41-.34.11-.09.2-.17h-.01s-.02-.01-.02-.01c-.25-.19-.87.59-1.21,1.49-.38.92-.64,1.96-.87,2.9-.24.98-.45,1.84-.62,2.54-.16.72-.37,1.31-.49,1.7-.15.38-.23.59-.23.59Z"/><path class="cls-5" d="M111.95,95.85h-52.52c-3.82,8.16-6.07,18.15-6.07,28.97,0,15.89,4.86,30.03,12.41,39.13h12.8c-.36-1.39-.56-2.9-.56-4.49,0-6.62,3.45-12,7.7-12s7.71,5.37,7.71,12c0,1.59-.2,3.1-.56,4.49h12.75c7.55-9.1,12.41-23.23,12.41-39.13,0-10.82-2.25-20.81-6.07-28.97Z"/><path d="M80.82,163.99c0-.17.03-.33.03-.49,0-5.51-4.47-9.99-9.99-9.99s-9.98,4.47-9.98,9.99c0,.17.02.33.02.49h19.92Z"/><path d="M111.2,163.99c.01-.17.02-.33.02-.49,0-5.51-4.47-9.99-9.99-9.99s-9.99,4.47-9.99,9.99c0,.17.02.33.02.49h19.92Z"/><path class="cls-8" d="M128.62,62.68c-1.3-21.61-20.25-38.75-43.43-38.75s-42.75,17.72-43.48,39.83c-5.31,8.08-5.36,18.83-5.36,29.18,0,23.7,17.18,36.96,36.48,46.29,4.16,2.01,7.84,4.18,12.69,4.18,3.84,0,8.16-2.54,11.47-4.18,22.14-11.04,37.05-22.65,37.05-47.35,0-10.81.34-20.91-5.42-29.2Z"/><path d="M81.84,127.47c-.17,4.19.2,8.39,0,12.58-.24,4.97,7.47,4.94,7.7,0,.2-4.19-.16-8.39,0-12.58.2-4.97-7.51-4.95-7.7,0h0Z"/><path class="cls-6" d="M111.14,62.53c1.51,2.81.45,6.32-2.36,7.83-2.81,1.51-6.32.45-7.83-2.36-1.51-2.81-.45-6.32,2.36-7.82,2.81-1.51,6.32-.45,7.83,2.36Z"/><path class="cls-5" d="M107.84,63.19c.28.53.08,1.19-.44,1.47-.53.28-1.19.08-1.47-.44-.28-.53-.09-1.19.44-1.47.53-.28,1.18-.08,1.47.44Z"/><path class="cls-1" d="M117.19,65.86c0,6.49-5.26,11.75-11.75,11.75s-11.75-5.26-11.75-11.75,5.26-11.75,11.75-11.75,11.75,5.26,11.75,11.75Z"/><path class="cls-6" d="M69.25,62.53c1.51,2.81.45,6.32-2.36,7.83-2.81,1.51-6.32.45-7.83-2.36-1.51-2.81-.45-6.32,2.36-7.82,2.81-1.51,6.31-.45,7.82,2.36Z"/><path class="cls-5" d="M65.96,63.19c.28.53.08,1.19-.44,1.47-.53.28-1.19.08-1.47-.44-.28-.53-.09-1.19.44-1.47.53-.28,1.18-.08,1.47.44Z"/><path class="cls-1" d="M75.31,65.86c0,6.49-5.26,11.75-11.75,11.75s-11.75-5.26-11.75-11.75,5.26-11.75,11.75-11.75,11.75,5.26,11.75,11.75Z"/><polygon class="cls-3" points="78.46 58.72 60.87 117.37 110.22 117.88 91.69 58.84 78.46 58.72"/><path d="M60.78,119.99c.7,12.75,24.92,15.7,24.92,15.7,0,0,24.22-2.94,24.92-15.7.7-12.74-50.54-12.74-49.84,0Z"/><path class="cls-5" d="M96.99,115.15s9.25,1.73,7.71,6.94c0,0,5.01-7.52-7.71-6.94Z"/><path class="cls-3" d="M91.84,59.55c0,1.83-3.05,3.32-6.81,3.32s-6.68-1.69-6.68-3.52,2.92-3.12,6.68-3.12,6.81,1.49,6.81,3.32Z"/><path class="cls-3" d="M85.05,26.64c-7.54.86-6.81,8.84-6.81,8.84,3.82,10.79.22,23.24.22,23.24l6.59-1.37,6.59,1.37s-3.59-12.46.22-23.24c0,0,.73-7.98-6.81-8.84Z"/><path class="cls-7" d="M28.89,27.6s16.08,11.19,18.39,17.26l14.5-12.44s-1.87-3.49-4.9-5.79l-27.98.96Z"/><path class="cls-8" d="M57.74,27.62c-3.73-5.05-12.64-4.82-18.19-4.59-4.46.19-12.98,1-14.58,6.23-.06.12-.1.26-.13.41-1.22,6.31,1.21,11.66,3.52,17.45,1.16,2.92,3.4,8.59,7.43,8.18,3.41-.35,6.3-8.11,7.64-10.53,1.64-2.96,3.14-5.98,4.9-8.87,1.89-3.1,5.65-4.48,8.78-5.89.81-.36,1.16-1.69.63-2.4Z"/><path class="cls-7" d="M140.61,27.6s-16.08,11.19-18.39,17.26l-14.5-12.44s1.87-3.49,4.9-5.79l27.98.96Z"/><path class="cls-8" d="M111.77,27.62c3.73-5.05,12.64-4.82,18.19-4.59,4.46.19,12.98,1,14.58,6.23.06.12.1.26.13.41,1.22,6.31-1.21,11.66-3.52,17.45-1.16,2.92-3.4,8.59-7.43,8.18-3.41-.35-6.3-8.11-7.64-10.53-1.64-2.96-3.14-5.98-4.9-8.87-1.89-3.1-5.65-4.48-8.78-5.89-.81-.36-1.16-1.69-.63-2.4Z"/><path class="cls-8" d="M64.42,146.4c-.61-1.4-1.75-1.31-2.81-2.28-.96-.88-1.05-2.1-1.32-3.24-.77-2.72-3.34-3.04-5.66-1.94.88,4.66,2.18,9.05,3.85,13.04.7-.19,1.39-.45,1.98-.67,2.28-.7,5.17-1.93,3.95-4.91Z"/><g class="cls-2"><path d="M87.28,24c-.7-.03-1.4-.08-2.1-.08-9.01,0-17.38,2.6-24.32,7.03-.84-1.22-2.21-2.97-3.99-4.32h0c-4.11-4.03-12.16-3.82-17.32-3.6-4.46.19-12.98,1-14.58,6.23-.06.12-.1.26-.13.41-1.22,6.31,1.21,11.66,3.52,17.45,1.16,2.92,3.4,8.59,7.43,8.18,3.41-.35,6.3-8.11,7.64-10.53.6-1.07,1.17-2.15,1.75-3.23.98,1.2,1.73,2.33,2.11,3.32h0c-3.35,5.61-5.35,12.04-5.58,18.89-5.31,8.08-5.36,18.83-5.36,29.18,0,15.11,6.99,25.98,17.06,34.29.13,4.05.56,7.97,1.28,11.71-.01,0-.03,0-.04.01.88,4.66,2.18,9.05,3.85,13.04.04-.01.07-.02.11-.03,1.03,2.42,2.19,4.68,3.47,6.79-.77,1.42-1.21,3.04-1.21,4.76,0,.17.02.33.02.49h19.92c0-.17.02-.33.02-.49,0-2.6-1-4.97-2.64-6.74.79-5.32,3.84-9.3,7.5-9.3.54,0,1.07.1,1.58.26V24Z"/></g></g></g></svg>