<?xml version="1.0" encoding="UTF-8"?><svg xmlns="http://www.w3.org/2000/svg" viewBox="0 0 170 170"><defs><style>.cls-1{fill:#d39c9c;}.cls-2{fill:#d09b99;}.cls-3{opacity:.1;}.cls-3,.cls-4{mix-blend-mode:multiply;}.cls-4{opacity:.2;}.cls-5{fill:#cc9797;}.cls-6{fill:#ae8382;}.cls-7{fill:#e5b5ab;}.cls-8{fill:#bb8c8b;}.cls-9{isolation:isolate;}.cls-10{fill:#fff;}.cls-11{fill:#d3ada1;}.cls-12{fill:#262424;}.cls-13{fill:#98daea;}</style></defs><g class="cls-9"><g id="Calque_3"><circle class="cls-13" cx="85" cy="85" r="83.12"/><path class="cls-2" d="M136.52,101.93c0,27.96-23.01,50.63-51.39,50.63s-51.39-22.67-51.39-50.63,23.01-50.63,51.39-50.63,51.39,22.67,51.39,50.63Z"/><path class="cls-3" d="M133.25,98.91c0,18.72-20.28,33.9-48.35,33.9s-48.11-15.58-48.11-34.3,20.04-33.5,48.11-33.5,48.35,15.18,48.35,33.9Z"/><path class="cls-11" d="M127.26,43.98c8.21-.72,15.49-.03,22.15,5.27,6.71,5.35,11.58,12.9,16.47,19.84-9.34,4.34-20.79,10.76-31.5,8.91-9.11-1.57-13.99-9.87-18.29-17.2,5.6-1.59-.62-11.53,2.83-15.43l8.34-1.39Z"/><path class="cls-6" d="M127.46,50.81c4.95-.43,9.33-.02,13.35,3.18,4.04,3.22,6.98,7.77,9.92,11.95-5.63,2.62-12.52,6.48-18.98,5.37-5.49-.95-8.43-5.94-11.02-10.36,3.37-.96,4.05-7.6,6.13-9.94"/><path class="cls-5" d="M42.54,43.98c-8.22-.72-15.49-.03-22.15,5.27-6.71,5.35-11.58,12.9-16.47,19.84,9.35,4.34,20.79,10.76,31.5,8.91,9.11-1.57,13.99-9.87,18.29-17.2-5.6-1.59.62-11.53-2.83-15.43l-8.34-1.39Z"/><path class="cls-6" d="M42.35,50.81c-4.95-.43-9.33-.02-13.35,3.18-4.04,3.22-6.98,7.77-9.92,11.95,5.63,2.62,12.52,6.48,18.98,5.37,5.49-.95,8.43-5.94,11.02-10.36-3.37-.96-4.05-7.6-6.13-9.94"/><path class="cls-1" d="M136.24,76.03c0,24.82-22.88,44.94-51.1,44.94s-51.1-20.12-51.1-44.94,22.88-44.94,51.1-44.94,51.1,20.12,51.1,44.94Z"/><path class="cls-4" d="M128.13,69.54c0,4.61-3.74,8.35-8.35,8.35s-8.34-3.74-8.34-8.35,3.74-8.35,8.34-8.35,8.35,3.74,8.35,8.35Z"/><path class="cls-12" d="M124.67,69.54c0,2.4-1.94,4.35-4.35,4.35s-4.35-1.95-4.35-4.35,1.95-4.35,4.35-4.35,4.35,1.95,4.35,4.35Z"/><path class="cls-10" d="M122.63,69.43c0,.56-.45,1.01-1,1.01s-1-.45-1-1.01.45-1,1-1,1,.45,1,1Z"/><path class="cls-4" d="M55.79,69.54c0,4.61-3.74,8.35-8.35,8.35s-8.34-3.74-8.34-8.35,3.74-8.35,8.34-8.35,8.35,3.74,8.35,8.35Z"/><path class="cls-12" d="M52.33,69.54c0,2.4-1.95,4.35-4.35,4.35s-4.35-1.95-4.35-4.35,1.95-4.35,4.35-4.35,4.35,1.95,4.35,4.35Z"/><path class="cls-10" d="M50.29,69.43c0,.56-.45,1.01-1,1.01s-1-.45-1-1.01.45-1,1-1,1,.45,1,1Z"/><path class="cls-7" d="M127.43,98.91c0,15.36-18.93,27.82-42.29,27.82s-42.29-12.45-42.29-27.82,18.93-27.82,42.29-27.82,42.29,12.45,42.29,27.82Z"/><path class="cls-8" d="M75.12,100.28c0,4.92-3.99,8.9-8.9,8.9s-8.9-3.99-8.9-8.9,3.99-8.9,8.9-8.9,8.9,3.99,8.9,8.9Z"/><path class="cls-8" d="M111.44,100.28c0,4.92-3.99,8.9-8.9,8.9s-8.9-3.99-8.9-8.9,3.99-8.9,8.9-8.9,8.9,3.99,8.9,8.9Z"/><path class="cls-2" d="M69.85,141.4c0,5.58-3.46,10.1-7.73,10.1s-7.73-4.52-7.73-10.1,3.46-10.1,7.73-10.1,7.73,4.52,7.73,10.1Z"/><path class="cls-2" d="M117.44,141.4c0,5.58-3.72,10.1-8.3,10.1s-8.3-4.52-8.3-10.1,3.72-10.1,8.3-10.1,8.3,4.52,8.3,10.1Z"/><path d="M76.95,156.99c0-7.64-6.19-13.84-13.83-13.84s-13.84,6.2-13.84,13.84c0,.23.02.46.03.68h8.7c.08-2.75,2.33-4.96,5.1-4.96s5.02,2.21,5.1,4.96h8.7c.01-.23.04-.45.04-.68Z"/><path d="M124.67,156.99c0-7.64-6.19-13.84-13.83-13.84s-13.84,6.2-13.84,13.84c0,.23.02.46.03.68h8.7c.08-2.75,2.33-4.96,5.1-4.96s5.02,2.21,5.1,4.96h8.7c.01-.23.03-.45.03-.68Z"/><path class="cls-4" d="M84.87,152.56V31.1c-14.4.06-27.38,5.36-36.63,13.84l-5.73-.96c-8.22-.72-15.49-.03-22.15,5.27-6.71,5.35-11.58,12.9-16.47,19.84,8.96,4.16,19.85,10.21,30.18,9.08.18,3.3.76,6.51,1.71,9.59-1.33,4.5-2.06,9.25-2.06,14.17,0,16.63,8.13,31.38,20.7,40.61.1,1.12.34,2.18.69,3.16-3.54,2.51-5.86,6.62-5.86,11.29,0,.23.02.46.03.68h8.7c.08-2.75,2.33-4.96,5.1-4.96s5.02,2.21,5.1,4.96h8.7c.01-.23.04-.45.04-.68,0-1.86-.37-3.64-1.04-5.26,2.92.52,5.92.81,8.99.82Z"/></g></g></svg>