<?xml version="1.0" encoding="UTF-8"?><svg xmlns="http://www.w3.org/2000/svg" viewBox="0 0 170 170"><defs><style>.cls-1{fill:#646f94;}.cls-2{fill:#8390bd;}.cls-3{opacity:.1;}.cls-3,.cls-4{mix-blend-mode:multiply;}.cls-4{opacity:.2;}.cls-5{fill:#737ea9;}.cls-6{fill:#dd8263;}.cls-7{fill:#95a1c3;}.cls-8{fill:#dfe0e1;}.cls-9{isolation:isolate;}.cls-10{fill:#8aa0b8;}.cls-11{fill:#fff;}.cls-12{fill:#262424;}.cls-13{fill:#76859b;}</style></defs><g class="cls-9"><g id="Calque_3"><circle class="cls-6" cx="85" cy="85" r="83.12"/><path class="cls-1" d="M112.23,94.4h-54.72c-3.98,8.5-6.32,18.91-6.32,30.18,0,16.56,5.06,31.29,12.93,40.76h13.33c-.38-1.45-.59-3.02-.59-4.68,0-6.9,3.57-8.58,8-8.58s8.05,1.68,8.05,8.58c0,1.66-.21,3.23-.59,4.68h13.29c7.87-9.48,12.93-24.2,12.93-40.76,0-11.26-2.35-21.68-6.32-30.18Z"/><path class="cls-5" d="M51.31,49.06c-3.44-9.98-9.29-16.51-20.64-16.17-13.07.34-22.36,16.17-24.42,27.52-2.75,14.45,6.88,22.36,15.48,32.33,7.57,9.29,6.54,17.89,9.29,28.55,2.06,7.91,8.94,12.73,17.2,11.01,12.38-2.41,8.25-15.48,6.88-24.42-3.78-20.29-3.44-39.56-3.44-59.85l-.34,1.03Z"/><path class="cls-5" d="M118.73,49.06c3.44-9.98,9.29-16.51,20.64-16.17,13.07.34,22.36,16.17,24.42,27.52,2.75,14.45-6.88,22.36-15.48,32.33-7.57,9.29-6.54,17.89-9.29,28.55-2.06,7.91-8.94,12.73-17.2,11.01-12.38-2.41-8.25-15.48-6.88-24.42,3.78-20.29,3.44-39.56,3.44-59.85l.34,1.03Z"/><path class="cls-2" d="M123.94,108.82c-5.2,18.37-20.78,28.38-39.06,29.15-18.28-.76-33.86-10.78-39.06-29.15-4.87-7.31-11.47-20.77-11.47-30.11,0-25.22,24.51-44.85,50.53-45.84,26.02,1,50.53,20.63,50.53,45.84,0,9.34-6.59,22.8-11.47,30.11Z"/><path class="cls-4" d="M118.26,84.19c0,3.72-3.02,6.74-6.74,6.74s-6.74-3.02-6.74-6.74,3.02-6.74,6.74-6.74,6.74,3.02,6.74,6.74Z"/><path class="cls-12" d="M116.44,84.3c0,2.72-2.2,4.93-4.92,4.93s-4.93-2.21-4.93-4.93,2.21-4.93,4.93-4.93,4.92,2.21,4.92,4.93Z"/><path class="cls-11" d="M114.13,84.19c0,.63-.51,1.14-1.14,1.14s-1.14-.51-1.14-1.14.51-1.14,1.14-1.14,1.14.51,1.14,1.14Z"/><path class="cls-4" d="M51.78,84.19c0,3.72,3.02,6.74,6.74,6.74s6.74-3.02,6.74-6.74-3.02-6.74-6.74-6.74-6.74,3.02-6.74,6.74Z"/><path class="cls-12" d="M53.6,84.3c0,2.72,2.2,4.93,4.92,4.93s4.93-2.21,4.93-4.93-2.21-4.93-4.93-4.93-4.92,2.21-4.92,4.93Z"/><path class="cls-11" d="M55.92,84.19c0,.63.51,1.14,1.14,1.14s1.14-.51,1.14-1.14-.51-1.14-1.14-1.14-1.14.51-1.14,1.14Z"/><polygon class="cls-10" points="66.04 159.56 66.04 165.34 68.34 165.34 66.04 159.56"/><polygon class="cls-10" points="71.28 159.56 71.28 165.34 73.58 165.34 71.28 159.56"/><polygon class="cls-10" points="104.01 159.56 104.01 165.34 101.71 165.34 104.01 159.56"/><polygon class="cls-10" points="98.77 159.56 98.77 165.34 96.47 165.34 98.77 159.56"/><path class="cls-8" d="M59.39,114.11s2,13.95-14.51,11.31c0,0,17.4,10.3,21.98-7.12,0,0-1.34-7.19-7.47-4.18Z"/><path class="cls-8" d="M66.56,118.8c-.93,1.03-3.19.52-5.07-1.16-1.87-1.68-2.64-3.87-1.72-4.91.93-1.04,3.2-.52,5.07,1.16,1.87,1.68,2.64,3.87,1.72,4.91Z"/><path class="cls-8" d="M110.66,114.11s-2,13.95,14.51,11.31c0,0-17.4,10.3-21.98-7.12,0,0,1.34-7.19,7.46-4.18Z"/><path class="cls-8" d="M103.49,118.8c.93,1.03,3.19.52,5.07-1.16,1.87-1.68,2.64-3.87,1.72-4.91-.93-1.04-3.2-.52-5.07,1.16-1.87,1.68-2.64,3.87-1.72,4.91Z"/><path class="cls-3" d="M85.02,32.87s-.1,0-.15,0c-12.82.49-25.27,5.51-34.6,13.49-3.55-8.43-9.31-13.77-19.6-13.46-13.07.34-22.36,16.17-24.42,27.52-2.75,14.45,6.88,22.36,15.48,32.33,7.57,9.29,6.54,17.89,9.29,28.55,2.06,7.91,8.94,12.73,17.2,11.01,1.25-.25,2.33-.6,3.26-1.05,1.16,13.8,5.85,25.9,12.65,34.08h13.33c-.38-1.45-.59-3.02-.59-4.68,0-6.9,3.57-8.58,8-8.58.05,0,.1,0,.15,0V32.87Z"/><path class="cls-7" d="M129.74,149.5c0-.19.02-.37.03-.55-.85-.04-1.71-.06-2.61-.17-1.09-.18-2.22-.24-3.36-.54-.56-.13-1.14-.26-1.73-.38-.57-.18-1.15-.35-1.74-.54-1.18-.31-2.32-.87-3.49-1.32-.56-.28-1.14-.57-1.71-.86-.58-.27-1.14-.59-1.68-.94-2.24-1.28-4.28-2.96-6.09-4.78-.43-.47-.91-.93-1.29-1.39l-1.02-1.35-.26-.34-.33-.48-.65-.96-.65-.96-.04-.06-.02-.03c.4.47.1.11.19.21l-.06-.11-.12-.22-.24-.44c-1.32-2.31-2.33-4.79-3.17-7.26-.86-2.46-1.43-5-1.88-7.46-.45-2.46-.68-4.91-.85-7.22-.13-2.33-.17-4.54-.12-6.59.05-2.05.17-3.94.3-5.61.08-.84.15-1.62.22-2.34.09-.68.17-1.31.25-1.87.34-2.59.54-4.06.54-4.06h-.01c.07-.29.11-.59.11-.9,0-3.99-5.94-11.99-13.39-11.99s-13.6,8-13.6,11.99c0,0,.02.24.06.62,0,.04,0,.08.01.12.09.96.28,2.74.55,4.63.12.78.24,1.64.38,2.58.16.89.34,1.86.53,2.9.4,2.06.91,4.39,1.56,6.91.65,2.52,1.46,5.24,2.44,8.07,1.02,2.83,2.18,5.79,3.64,8.76,1.47,2.97,3.11,5.98,5.12,8.85,1.99,2.87,4.19,5.67,6.72,8.15l1.13,1.16.89.75.89.75.44.37.58.45,2.36,1.76c.78.52,1.54.94,2.3,1.4,3.08,1.73,6.23,3.07,9.38,3.86.77.23,1.55.43,2.33.56.78.15,1.54.31,2.29.43,1.53.15,3,.4,4.45.39.72.02,1.42.03,2.12.05.69-.04,1.38-.07,2.05-.11,1.33-.03,2.62-.3,3.83-.44,1.09-.18,2.11-.44,3.09-.66-.43-.87-.68-1.82-.68-2.82Z"/><path class="cls-13" d="M78.14,95.58s7.7-6.15,14.36.52c0,0-6.45-4.04-14.36-.52Z"/><path class="cls-13" d="M78.25,103.54s7.19-6.74,14.36-.62c0,0-6.75-3.52-14.36.62Z"/><path class="cls-13" d="M79.26,111.79s5.88-6.12,12.33-1.17c0,0-5.96-2.73-12.33,1.17Z"/><path class="cls-13" d="M81.41,120.76s4.9-6.87,11.95-2.94c0,0-6.26-1.82-11.95,2.94Z"/></g></g></svg>