<?xml version="1.0" encoding="UTF-8"?><svg xmlns="http://www.w3.org/2000/svg" viewBox="0 0 170 170"><defs><style>.cls-1{fill:#d1d3d4;}.cls-2{mix-blend-mode:multiply;opacity:.2;}.cls-3{fill:#5d4622;}.cls-4{fill:#d1d0d1;}.cls-5{fill:#b7d08e;}.cls-6{isolation:isolate;}.cls-7{fill:#b5b6b7;}.cls-8{fill:#262424;}.cls-9{fill:#bdbec0;}.cls-10{fill:#bf9064;}</style></defs><g class="cls-6"><g id="Calque_3"><circle class="cls-5" cx="85" cy="85" r="83.12"/><path class="cls-7" d="M39.64,96.18s-.2.51-.49,1.44c-2.16,6.91-9.36,36.75,23.16,48.25l-22.87-49.17"/><path class="cls-7" d="M131.2,96.18s.2.51.49,1.44c2.16,6.91,9.36,36.75-23.16,48.25l22.87-49.17"/><path class="cls-4" d="M129.83,43.51c-11.44-9.7-29.11-9.7-43.32-12.13l-.77.22-.76-.22c-14.21,2.43-31.88,2.43-43.32,12.13-14.9,12.48-9.7,30.5-5.54,46.78,5.89,22.18,15.59,48.17,33.96,63.07,2.39,1.91,8.07,7.28,12.73,9.52.18.2.37.38.58.53.65.43,1.46.52,2.35.41.9.11,1.71.02,2.36-.41.21-.14.4-.33.58-.53,4.66-2.24,10.34-7.61,12.73-9.52,18.37-14.9,28.07-40.89,33.96-63.07,4.16-16.29,9.36-34.31-5.54-46.78Z"/><path class="cls-4" d="M142.47,25.04s9.06,21.35-10.81,29.18l-8.41-12.05s15.64,2.23,19.21-17.13Z"/><path class="cls-4" d="M28.59,25.04s-9.06,21.35,10.81,29.18l8.41-12.05s-15.64,2.23-19.22-17.13Z"/><path class="cls-9" d="M79.37,66.39c0,10.76-8.72,19.48-19.48,19.48s-19.48-8.73-19.48-19.48,8.72-19.48,19.48-19.48,19.48,8.73,19.48,19.48Z"/><path class="cls-7" d="M129.6,66.39c0,10.76-8.72,19.48-19.48,19.48s-19.48-8.73-19.48-19.48,8.72-19.48,19.48-19.48,19.48,8.73,19.48,19.48Z"/><path class="cls-10" d="M74.69,66.39c0,8.17-6.62,14.8-14.8,14.8s-14.8-6.63-14.8-14.8,6.63-14.8,14.8-14.8,14.8,6.63,14.8,14.8Z"/><path class="cls-8" d="M64.41,66.39c0,2.5-2.02,4.52-4.52,4.52s-4.52-2.03-4.52-4.52,2.03-4.52,4.52-4.52,4.52,2.03,4.52,4.52Z"/><path class="cls-10" d="M124.92,66.39c0,8.17-6.62,14.8-14.8,14.8s-14.8-6.63-14.8-14.8,6.63-14.8,14.8-14.8,14.8,6.63,14.8,14.8Z"/><path class="cls-8" d="M114.64,66.39c0,2.5-2.03,4.52-4.52,4.52s-4.52-2.03-4.52-4.52,2.02-4.52,4.52-4.52,4.52,2.03,4.52,4.52Z"/><path class="cls-3" d="M94.42,84.68h.06s-.34.57-.34.57c-.05.11-.1.21-.15.32-.18.33-.37.64-.58.94l-8.08,13.78-9.63-14.01h0c-2.1-3.2-2.41-7.43-.43-11.01,2.85-5.17,9.35-7.05,14.51-4.21,4.88,2.69,6.83,8.62,4.64,13.63Z"/><path class="cls-7" d="M85.74,106.51c-6.25-.24-30.34-.27-25.08,13.94,5.35,14.45,21.22,30.53,24.73,33.97l.02.68s.13-.12.34-.33c.22.21.34.33.34.33l.02-.68c3.51-3.44,19.38-19.52,24.73-33.97,5.25-14.2-18.83-14.18-25.09-13.94Z"/><path class="cls-3" d="M68.69,147.65s-14.9,2.43-9.7,11.44c0,0,2.08-4.85,9.7-11.44Z"/><path class="cls-3" d="M72.06,149.75s-14.27,4.93-7.61,12.92c0,0,1.22-5.14,7.61-12.92Z"/><path class="cls-3" d="M75.2,151.83s-12.84,7.95-4.58,14.28c0,0,.06-5.28,4.58-14.28Z"/><path class="cls-3" d="M102.62,147.65s14.9,2.43,9.7,11.44c0,0-2.08-4.85-9.7-11.44Z"/><path class="cls-3" d="M99.26,149.75s14.27,4.93,7.61,12.92c0,0-1.22-5.14-7.61-12.92Z"/><path class="cls-3" d="M96.11,151.83s12.84,7.95,4.59,14.28c0,0-.07-5.28-4.59-14.28Z"/><path class="cls-1" d="M60.15,113.51s8.13,15.93,17.06,0c0,0-8.05,22.93-17.06,0Z"/><path class="cls-1" d="M77.21,113.51s8.13,15.93,17.06,0c0,0-8.05,22.93-17.06,0Z"/><path class="cls-1" d="M68.68,123.7s8.13,15.93,17.06,0c0,0-8.05,22.93-17.06,0Z"/><path class="cls-1" d="M76.99,133.89s8.13,15.93,17.06,0c0,0-8.05,22.93-17.06,0Z"/><path class="cls-1" d="M85.74,123.7s8.13,15.93,17.06,0c0,0-8.05,22.93-17.06,0Z"/><path class="cls-1" d="M94.27,113.51s8.13,15.93,17.06,0c0,0-8.05,22.93-17.06,0Z"/><path class="cls-2" d="M85.53,31.54l-.55-.16c-13.44,2.29-29.96,2.43-41.39,10.64-4.9-.78-12.62-4.1-15-16.99,0,0-7.53,17.78,6.25,26.83-5.97,11.47-2.02,25.49,1.28,38.42.78,2.93,1.63,5.94,2.56,8.97-2.45,9.09-6.75,35.86,23.64,46.6l-.05-.1c.87.98,1.76,1.94,2.67,2.86-4.02,1.4-9.39,4.48-5.95,10.44,0,0,1.62-3.77,7.22-9.17.61.59,1.25,1.15,1.88,1.71-3.64,2.13-7.88,5.97-3.64,11.05,0,0,.9-3.76,5.16-9.72.16.13.31.28.47.41.42.33.94.77,1.53,1.28-3.05,2.88-6.16,7.49-.99,11.46,0,0,.05-3.65,2.66-10.03,2.75,2.34,6.38,5.3,9.54,6.82.18.2.37.38.58.53.59.4,1.33.5,2.14.42V31.54Z"/></g></g></svg>