<?xml version="1.0" encoding="UTF-8"?><svg xmlns="http://www.w3.org/2000/svg" viewBox="0 0 170 170"><defs><style>.cls-1{fill:#c3918f;}.cls-2{mix-blend-mode:multiply;opacity:.2;}.cls-3{fill:#bb8c8b;}.cls-4{isolation:isolate;}.cls-5{fill:#fff;}.cls-6{fill:#262424;}.cls-7{fill:#3b0a06;}.cls-8{fill:#e2a5a4;}</style></defs><g class="cls-4"><g id="Calque_3"><circle class="cls-7" cx="85" cy="85" r="83.12"/><path class="cls-8" d="M73.92,149.48c0,6.39-2,11.56-4.48,11.56s-4.47-5.18-4.47-11.56,2-11.56,4.47-11.56,4.48,5.18,4.48,11.56Z"/><path class="cls-8" d="M97.29,149.48c0,6.39,2,11.56,4.47,11.56s4.48-5.18,4.48-11.56-2-11.56-4.48-11.56-4.47,5.18-4.47,11.56Z"/><path class="cls-5" d="M142.3,92.35c2.6-.68,4.92-2.38,6.27-4.94,2.55-4.85.69-10.86-4.15-13.41-1.72-.91-3.58-1.23-5.39-1.09,2.21-1.53,3.81-3.91,4.2-6.78.73-5.43-3.06-10.44-8.49-11.18-1.93-.26-3.79.07-5.44.82,1.55-2.19,2.24-4.98,1.63-7.81-1.17-5.36-6.44-8.76-11.8-7.6-1.9.41-3.54,1.36-4.83,2.63.71-2.59.4-5.45-1.14-7.9-2.93-4.63-9.05-6.03-13.69-3.1-1.65,1.04-2.86,2.49-3.64,4.12-.22-2.68-1.48-5.26-3.77-7.04-4.34-3.35-10.57-2.57-13.92,1.76-1.19,1.54-1.84,3.32-2.02,5.12-1.12-2.44-3.19-4.43-5.95-5.32-5.22-1.67-10.81,1.2-12.48,6.42-.59,1.85-.59,3.74-.14,5.5-1.89-1.91-4.52-3.07-7.41-2.96-5.48.22-9.75,4.83-9.53,10.3.07,1.94.72,3.72,1.75,5.22-2.43-1.15-5.29-1.34-7.97-.25-5.07,2.08-7.51,7.87-5.44,12.94.74,1.8,1.95,3.25,3.43,4.3-2.67-.25-5.43.55-7.58,2.49-4.05,3.69-4.37,9.96-.68,14.02,1.31,1.44,2.94,2.38,4.69,2.87-2.6.68-4.92,2.38-6.27,4.94-2.55,4.85-.69,10.85,4.15,13.41,1.72.91,3.58,1.23,5.39,1.09-2.21,1.53-3.81,3.91-4.2,6.78-.73,5.43,3.06,10.44,8.49,11.18,1.93.26,3.79-.07,5.44-.82-1.55,2.19-2.24,4.98-1.63,7.81,1.17,5.36,6.44,8.76,11.8,7.6,1.9-.41,3.54-1.36,4.83-2.63-.71,2.59-.4,5.45,1.14,7.9,2.93,4.63,9.05,6.03,13.68,3.11,1.64-1.04,2.86-2.49,3.64-4.12.22,2.68,1.48,5.25,3.77,7.03,4.34,3.35,10.57,2.57,13.93-1.76,1.19-1.54,1.83-3.32,2.01-5.12,1.12,2.44,3.19,4.43,5.95,5.31,5.22,1.67,10.81-1.2,12.48-6.42.59-1.85.59-3.74.14-5.5,1.89,1.91,4.51,3.07,7.41,2.96,5.48-.22,9.75-4.82,9.54-10.3-.08-1.94-.72-3.72-1.75-5.21,2.43,1.15,5.29,1.34,7.97.24,5.07-2.08,7.51-7.87,5.44-12.94-.74-1.8-1.95-3.25-3.42-4.3,2.67.25,5.43-.55,7.58-2.5,4.05-3.69,4.36-9.96.68-14.02-1.3-1.44-2.94-2.38-4.69-2.87ZM76.9,41.63c.03-.19.09-.39.1-.58.08.18.14.36.23.53-.11.02-.22.03-.34.06ZM46.69,59.11c-.13-.22-.24-.46-.38-.68.23.11.44.25.68.34-.1.11-.2.22-.3.34ZM33.98,91.49c.17-.04.34-.07.51-.12,0,.1,0,.2-.01.31-.17-.06-.33-.13-.5-.18ZM111.67,47.52s-.01-.01-.02-.02c.02-.01.03-.03.04-.05,0,.02-.01.04-.02.07ZM94.94,41.53c-.06-.01-.12-.03-.19-.03.05-.1.12-.2.16-.3.01.11.01.22.02.34ZM60.61,47.54c-.12.07-.25.14-.37.21-.04-.24-.06-.49-.12-.72.16.17.31.36.49.51ZM37.9,73.95c-.05.13-.1.25-.15.38-.17-.15-.34-.32-.52-.45.22.02.44.07.67.07ZM36.94,109.15c.08-.05.16-.1.23-.15.01.05.03.1.04.14-.09,0-.19,0-.28.01Z"/><path d="M76.96,163.51c0-4.15-3.37-7.52-7.52-7.52s-7.52,3.37-7.52,7.52c0,.13.01.25.02.37h4.73c.05-1.5,1.27-2.7,2.77-2.7s2.73,1.2,2.77,2.7h4.73c0-.12.02-.24.02-.37Z"/><path d="M109.29,163.51c0-4.15-3.37-7.52-7.52-7.52s-7.52,3.37-7.52,7.52c0,.13.01.25.02.37h4.73c.05-1.5,1.27-2.7,2.77-2.7s2.73,1.2,2.77,2.7h4.73c0-.12.02-.24.02-.37Z"/><path class="cls-8" d="M121.31,62.32c0,22.85-16.13,41.38-36.04,41.38s-36.03-18.53-36.03-41.38,16.13-41.38,36.03-41.38,36.04,18.52,36.04,41.38Z"/><path class="cls-8" d="M85.27,58.56c27.14,0,49.13,19.16,49.13,42.8s-22,42.79-49.13,42.79-49.13-19.16-49.13-42.79,22-42.8,49.13-42.8Z"/><path class="cls-6" d="M68.46,58.48c1.16,2.15.35,4.84-1.81,5.99-2.15,1.15-4.83.35-5.99-1.81-1.16-2.15-.35-4.83,1.81-5.99,2.16-1.15,4.83-.34,5.99,1.81Z"/><path class="cls-5" d="M65.94,58.99c.21.4.06.91-.34,1.13-.41.22-.91.06-1.13-.34-.21-.41-.07-.91.34-1.13.41-.22.91-.06,1.13.34Z"/><path class="cls-2" d="M73.1,61.03c0,4.97-4.03,8.99-8.99,8.99s-8.99-4.02-8.99-8.99,4.03-9,8.99-9,8.99,4.03,8.99,9Z"/><path class="cls-6" d="M101.26,58.86c-1.21,2.13-.46,4.83,1.67,6.04,2.13,1.2,4.83.46,6.03-1.67,1.2-2.12.46-4.83-1.66-6.03-2.13-1.2-4.83-.46-6.04,1.66Z"/><path class="cls-5" d="M103.77,59.43c-.22.4-.09.91.31,1.14.4.22.91.08,1.13-.32.23-.4.09-.91-.31-1.13-.4-.23-.91-.09-1.13.31Z"/><path class="cls-2" d="M96.56,61.31c-.12,4.96,3.81,9.08,8.78,9.2,4.96.11,9.09-3.81,9.2-8.78.12-4.97-3.81-9.09-8.78-9.21-4.97-.11-9.09,3.82-9.2,8.78Z"/><path class="cls-1" d="M68.44,132.59c-1.35,2.12-5.33,2-8.89-.27-3.55-2.27-5.35-5.82-4-7.93,1.34-2.11,5.32-1.99,8.88.27,3.56,2.27,5.35,5.82,4,7.94Z"/><path class="cls-1" d="M101.42,132.15c1.35,2.12,5.33,2,8.89-.27,3.56-2.27,5.35-5.82,4-7.93-1.34-2.11-5.32-1.99-8.88.27-3.56,2.27-5.35,5.82-4.01,7.93Z"/><path class="cls-8" d="M152.19,36.95c-3.52-6.57-14.21-6.9-20.27-4.73-7.34,2.62-15.2,8.31-19.81,14.79-.21.23-.39.47-.54.74-.05.07-.1.13-.15.2-1.31,2.01-.8,3.94.48,5.23.74,1,1.9,1.71,3.52,1.73,9.56.14,47.59,2.21,36.78-17.97Z"/><path class="cls-3" d="M141.03,40.21c-2.25-4.19-9.07-4.4-12.93-3.01-4.68,1.67-9.69,5.3-12.63,9.43-.13.14-.25.3-.34.47-.03.04-.07.09-.1.13-.84,1.28-.51,2.51.3,3.34.47.64,1.21,1.09,2.25,1.1,6.1.09,30.35,1.41,23.45-11.46Z"/><path class="cls-8" d="M17.81,36.95c3.52-6.57,14.22-6.9,20.28-4.73,7.34,2.62,15.2,8.31,19.81,14.79.21.23.39.47.54.74.05.07.11.13.15.2,1.31,2.01.8,3.94-.48,5.23-.74,1-1.91,1.71-3.52,1.73-9.56.14-47.6,2.21-36.78-17.97Z"/><path class="cls-3" d="M28.97,40.21c2.24-4.19,9.07-4.4,12.93-3.01,4.68,1.67,9.69,5.3,12.63,9.43.13.14.25.3.35.47.03.04.07.09.1.13.83,1.28.51,2.51-.3,3.34-.47.64-1.22,1.09-2.25,1.1-6.1.09-30.35,1.41-23.45-11.46Z"/><path class="cls-5" d="M120.41,35.94c-.86-.88-2.01-1.41-3.22-1.6,1.14-.38,2.15-1.06,2.81-2.04,1.51-2.28.61-5.18-2.01-6.49-.84-.42-1.76-.6-2.66-.61-.1-.18-.2-.37-.31-.55.56-.6.98-1.32,1.15-2.14.52-2.58-1.47-5.05-4.46-5.51-1.31-.2-2.58.04-3.65.57.59-.92.86-2.01.63-3.12-.53-2.58-3.38-4.31-6.36-3.86-1.31.2-2.41.8-3.21,1.61.19-1.04.02-2.14-.64-3.12-1.52-2.27-4.88-3.05-7.5-1.74-.32.16-.61.35-.88.55-.28-.37-.61-.72-1.02-1.02-2.33-1.69-5.79-1.43-7.73.59-.11.12-.19.24-.29.36-.25-.18-.52-.35-.81-.5-2.62-1.32-5.98-.55-7.51,1.72-.66.98-.84,2.08-.66,3.12-.79-.82-1.89-1.42-3.2-1.62-2.98-.47-5.83,1.25-6.37,3.83-.23,1.12.03,2.2.62,3.13-1.07-.53-2.34-.78-3.65-.58-2.99.44-4.99,2.9-4.47,5.49.16.82.58,1.54,1.14,2.14-.11.18-.21.36-.31.55-.91,0-1.82.19-2.66.61-2.63,1.3-3.54,4.21-2.04,6.48.65.99,1.66,1.67,2.79,2.05-1.21.19-2.37.71-3.22,1.59-1.96,2-1.66,5,.65,6.7.57.42,1.22.72,1.9.91-.13.2-.26.41-.36.63-1.05,2.46.41,5.19,3.26,6.1.63.2,1.27.28,1.9.28.1,2.54,2.49,4.59,5.45,4.59,1.13,0,2.18-.29,3.05-.79.04.13.06.26.11.39,1.03,2.47,4.17,3.75,7.03,2.86.81-.26,1.5-.67,2.06-1.17.2.64.55,1.26,1.07,1.81,1.94,2.01,5.4,2.29,7.73.61.37-.27.69-.57.95-.9.27.33.58.63.95.9,2.33,1.69,5.79,1.43,7.74-.58.53-.55.88-1.17,1.08-1.81.56.5,1.24.92,2.06,1.18,2.85.9,6-.38,7.04-2.84.05-.13.07-.26.11-.39.87.51,1.92.8,3.05.8,2.96,0,5.37-2.04,5.47-4.58.63,0,1.27-.08,1.9-.27,2.85-.9,4.32-3.63,3.28-6.09-.09-.22-.22-.43-.35-.63.68-.18,1.32-.48,1.9-.9,2.32-1.69,2.62-4.69.68-6.69Z"/><path class="cls-2" d="M85,5.76c-1.38.12-2.7.68-3.66,1.67-.11.11-.19.24-.29.36-.25-.18-.52-.35-.81-.5-2.62-1.32-5.98-.55-7.51,1.72-.66.98-.84,2.08-.66,3.12-.79-.81-1.89-1.42-3.2-1.62-2.98-.47-5.84,1.25-6.38,3.84-.23,1.12.03,2.2.62,3.13-1.07-.53-2.34-.78-3.65-.58-2.99.44-4.99,2.9-4.47,5.49.16.82.58,1.53,1.14,2.14-.11.18-.21.36-.31.55-.91,0-1.82.19-2.66.61-2.63,1.3-3.54,4.21-2.04,6.48.65.99,1.66,1.67,2.79,2.05-1.21.19-2.37.71-3.23,1.59-.76.78-1.17,1.71-1.26,2.66-3.57-2.71-7.52-4.91-11.34-6.28-6.06-2.17-16.76-1.84-20.28,4.73-6.64,12.39,5.13,16.39,17.42,17.6-.29.09-.57.18-.86.3-5.07,2.08-7.51,7.87-5.44,12.94.73,1.8,1.95,3.25,3.43,4.3-2.67-.25-5.43.55-7.58,2.5-4.05,3.69-4.37,9.96-.68,14.02,1.31,1.44,2.94,2.38,4.69,2.87-2.6.68-4.92,2.38-6.27,4.94-2.55,4.85-.7,10.85,4.15,13.41,1.72.91,3.58,1.23,5.39,1.09-2.21,1.53-3.81,3.91-4.2,6.78-.73,5.43,3.06,10.44,8.49,11.18,1.93.26,3.79-.07,5.44-.82-1.55,2.19-2.24,4.98-1.63,7.81,1.17,5.36,6.44,8.76,11.8,7.6,1.9-.41,3.54-1.36,4.83-2.63-.71,2.59-.4,5.45,1.14,7.9,1.68,2.65,4.4,4.24,7.29,4.56.18,1.31.44,2.51.77,3.56-2.41,1.25-4.08,3.75-4.08,6.65,0,.13.01.25.02.37h4.73c.05-1.5,1.27-2.7,2.77-2.7s2.73,1.2,2.77,2.7h4.73c0-.12.02-.24.02-.37,0-2.91-1.66-5.4-4.08-6.65.62-1.92.99-4.37,1.02-7.05.54-.65.99-1.35,1.35-2.09.22,2.68,1.48,5.25,3.77,7.03,1.78,1.37,3.88,2.04,5.97,2.07V5.76Z"/></g></g></svg>