<?xml version="1.0" encoding="UTF-8"?><svg xmlns="http://www.w3.org/2000/svg" viewBox="0 0 170 170"><defs><style>.cls-1{mix-blend-mode:multiply;opacity:.2;}.cls-2{isolation:isolate;}.cls-3{fill:#c4a268;}.cls-4{fill:#fff;}.cls-5{fill:#f0f0f0;}.cls-6{fill:#262424;}.cls-7{fill:#b55235;}.cls-8{fill:#636467;}</style></defs><g class="cls-2"><g id="Calque_3"><circle class="cls-7" cx="85" cy="85" r="83.12"/><path class="cls-8" d="M149,106.16c0-20.82-8.68-39.46-22.37-52.02.55-2.65.84-5.38.84-8.18,0-22.7-19.02-41.1-42.47-41.1s-42.47,18.4-42.47,41.1c0,2.8.29,5.54.84,8.18-13.69,12.57-22.37,31.2-22.37,52.02,0,18.35,6.75,35,17.71,47.3h92.57c10.97-12.3,17.71-28.95,17.71-47.3Z"/><path class="cls-5" d="M138.83,109.31c0-19.43-7.3-36.83-18.82-48.55.47-2.47.71-5.02.71-7.64,0-21.19-15.99-38.36-35.72-38.36s-35.72,17.18-35.72,38.36c0,2.61.25,5.17.71,7.64-11.51,11.73-18.82,29.12-18.82,48.55,0,17.12,5.68,32.66,14.9,44.14h77.85c9.22-11.48,14.9-27.02,14.9-44.14Z"/><path class="cls-1" d="M81.44,43.34c0,6.48-5.25,11.73-11.73,11.73s-11.73-5.25-11.73-11.73,5.25-11.73,11.73-11.73,11.73,5.25,11.73,11.73Z"/><path class="cls-1" d="M110.7,43.34c0,6.48-5.25,11.73-11.73,11.73s-11.73-5.25-11.73-11.73,5.25-11.73,11.73-11.73,11.73,5.25,11.73,11.73Z"/><path class="cls-6" d="M105.38,43.34c0,3.53-2.86,6.4-6.4,6.4s-6.4-2.87-6.4-6.4,2.87-6.4,6.4-6.4,6.4,2.87,6.4,6.4Z"/><path class="cls-4" d="M102.37,43.19c0,.81-.66,1.48-1.48,1.48s-1.48-.66-1.48-1.48.66-1.48,1.48-1.48,1.48.66,1.48,1.48Z"/><path class="cls-6" d="M76.28,43.17c0,3.62-2.94,6.56-6.56,6.56s-6.56-2.94-6.56-6.56,2.94-6.56,6.56-6.56,6.56,2.94,6.56,6.56Z"/><path class="cls-4" d="M73.19,43.02c0,.84-.68,1.52-1.52,1.52s-1.52-.68-1.52-1.52.68-1.52,1.52-1.52,1.52.68,1.52,1.52Z"/><path class="cls-3" d="M93.82,57.79h.06s-.33.55-.33.55c-.05.11-.1.21-.15.31-.18.32-.37.63-.57.92l-7.9,13.47-9.41-13.7h0c-2.05-3.13-2.35-7.26-.42-10.77,2.78-5.05,9.14-6.89,14.19-4.11,4.77,2.63,6.68,8.43,4.54,13.32Z"/><path class="cls-8" d="M84.81,9.94c-11.44.26-23.72,13.26-23.72,13.26,0,0,16.63-6.1,23.72,4.84,7.09-10.93,23.72-4.84,23.72-4.84,0,0-12.28-13.52-23.72-13.26Z"/><path class="cls-8" d="M25.72,101.62c13.32,33.18,54.04,24.7,54.04,24.7-49.27-9.98-48.58-41.9-48.58-41.9l-5.46,17.19Z"/><path class="cls-8" d="M148.68,107.99c-13.32-29.39-54.04-21.88-54.04-21.88,49.27,8.84,48.58,37.1,48.58,37.1l5.46-15.22Z"/><path class="cls-3" d="M64.24,146.4c-.04.05.04.05,0,0,0,0-6.93,5.46-17.2,7.05l17.2-.19,17.2.19c-10.27-1.6-17.2-7.05-17.2-7.05Z"/><path class="cls-3" d="M104.45,146.4c-.04.05.04.05,0,0,0,0-6.93,5.46-17.2,7.05l17.2-.19,17.2.19c-10.27-1.6-17.2-7.05-17.2-7.05Z"/><path class="cls-1" d="M85,4.85c-23.46,0-42.47,18.4-42.47,41.1,0,2.8.29,5.54.84,8.18-13.69,12.57-22.37,31.2-22.37,52.02,0,18.35,6.75,35,17.71,47.3h46.29V4.85Z"/></g></g></svg>