<?xml version="1.0" encoding="UTF-8"?><svg xmlns="http://www.w3.org/2000/svg" viewBox="0 0 170 170"><defs><style>.cls-1{mix-blend-mode:multiply;opacity:.2;}.cls-2{fill:#ba774c;}.cls-3{fill:#f0c64a;}.cls-4{isolation:isolate;}.cls-5{fill:#fff;}.cls-6{fill:#262424;}.cls-7{fill:#f2d06b;}.cls-8{fill:#98daea;}</style></defs><g class="cls-4"><g id="Calque_3"><circle class="cls-8" cx="85" cy="85" r="83.12"/><path class="cls-2" d="M70.14,154.92s.04.05,0,0c0,0-6.08,4.79-15.09,6.19l15.09-.17,15.1.17c-9.01-1.4-15.1-6.19-15.1-6.19Z"/><rect class="cls-2" x="68.63" y="140.04" width="3.01" height="19.09"/><path class="cls-2" d="M100.33,154.92s.04.05,0,0c0,0-6.08,4.79-15.09,6.19l15.09-.17,15.09.17c-9.01-1.4-15.09-6.19-15.09-6.19Z"/><rect class="cls-2" x="98.82" y="140.04" width="3.01" height="19.09"/><path class="cls-3" d="M50.99,57.21c-.32-1.92-1.8-2.62-3.27-2.44-.29-.02-.6,0-.92.06-6.42,1.24-11.13,2.31-17.31-.68-4.73-2.28-8.39-6.11-11.75-10.03-2.15-2.52-5.52-.22-5.82,2.41-1.28,11.37,3.89,24.18,16.34,25.87,6.32.86,12.68-1.56,17.9-4.96,4.59-2.99,5.68-5.12,4.83-10.23Z"/><path class="cls-3" d="M119.01,57.21c.32-1.92,1.8-2.62,3.27-2.44.29-.02.6,0,.92.06,6.42,1.24,11.13,2.31,17.31-.68,4.73-2.28,8.39-6.11,11.75-10.03,2.15-2.52,5.52-.22,5.82,2.41,1.28,11.37-3.89,24.18-16.34,25.87-6.32.86-12.68-1.56-17.9-4.96-4.59-2.99-5.68-5.12-4.83-10.23Z"/><path class="cls-3" d="M123.76,51.03c.24-1.74.38-3.5.38-5.31,0-21.11-17.42-38.23-38.91-38.23s-38.91,17.12-38.91,38.23c0,1.8.14,3.57.38,5.31-11.08,10.14-18.02,24.59-18.02,40.64,0,30.68,25.32,55.55,56.54,55.55s56.54-24.87,56.54-55.55c0-16.05-6.94-30.5-18.02-40.64Z"/><path class="cls-2" d="M99.98,54.03h.04c-9.02-2-15.1-8.83-15.1-8.83,0,0-6.08,6.83-15.09,8.82l.21.02c8.98,2.02,15.03,8.81,15.03,8.81,0,0,6.08-6.83,15.09-8.83h-.18Z"/><path class="cls-1" d="M58.02,40.74c0,4.9,3.97,8.87,8.87,8.87s8.87-3.97,8.87-8.87-3.97-8.87-8.87-8.87-8.87,3.97-8.87,8.87Z"/><path class="cls-6" d="M60.15,40.74c0,3.73,3.02,6.75,6.75,6.75s6.75-3.02,6.75-6.75-3.02-6.75-6.75-6.75-6.75,3.02-6.75,6.75Z"/><path class="cls-5" d="M63.32,40.59c0,.86.7,1.56,1.56,1.56s1.56-.7,1.56-1.56-.7-1.56-1.56-1.56-1.56.7-1.56,1.56Z"/><path class="cls-1" d="M112.37,40.74c0,4.9-3.97,8.87-8.87,8.87s-8.87-3.97-8.87-8.87,3.97-8.87,8.87-8.87,8.87,3.97,8.87,8.87Z"/><path class="cls-6" d="M110.25,40.74c0,3.73-3.02,6.75-6.75,6.75s-6.75-3.02-6.75-6.75,3.02-6.75,6.75-6.75,6.75,3.02,6.75,6.75Z"/><path class="cls-5" d="M107.07,40.59c0,.86-.7,1.56-1.56,1.56s-1.56-.7-1.56-1.56.7-1.56,1.56-1.56,1.56.7,1.56,1.56Z"/><path class="cls-7" d="M117.47,104.85c0,17.82-14.45,32.28-32.28,32.28s-32.28-14.45-32.28-32.28,14.45-32.28,32.28-32.28,32.28,14.45,32.28,32.28Z"/><path class="cls-1" d="M85,161.06c-6.25-1.02-11.05-3.63-13.35-5.1v-10.37c4.28,1.04,8.75,1.6,13.35,1.62V7.5c-21.38.12-38.68,17.19-38.68,38.22,0,1.8.14,3.57.38,5.31-1.59,1.46-3.09,3.02-4.5,4.64-4.3.68-8.1.71-12.72-1.52-4.73-2.28-8.39-6.11-11.75-10.03-2.15-2.52-5.52-.22-5.82,2.41-1.28,11.37,3.89,24.18,16.34,25.87,1.3.18,2.61.19,3.91.11-2.24,5.98-3.48,12.43-3.48,19.17,0,25,16.82,46.14,39.94,53.11v11.18c-2.33,1.49-7.22,4.16-13.59,5.15l15.09-.17,14.86.16v-.04Z"/></g></g></svg>