<?xml version="1.0" encoding="UTF-8"?><svg xmlns="http://www.w3.org/2000/svg" xmlns:xlink="http://www.w3.org/1999/xlink" viewBox="0 0 170 170"><defs><style>.cls-1{fill:none;}.cls-2{fill:#f4f4f5;}.cls-3{fill:#c5c6c7;}.cls-4{mix-blend-mode:multiply;opacity:.4;}.cls-5{fill:#dd8263;}.cls-6{fill:#e6e5e5;}.cls-7{isolation:isolate;}.cls-8{fill:#fff;}.cls-9{fill:#262424;}.cls-10{fill:#636467;}.cls-11{fill:#4b4b4d;}.cls-12{clip-path:url(#clippath);}.cls-13{fill:#767678;}</style><clipPath id="clippath"><path class="cls-1" d="M108.66,156.51s-.05-.2-.15-.59c-.08-.37-.26-.91-.4-1.61-.15-.69-.35-1.55-.46-2.56-.12-1.02-.2-2.19-.01-3.59.09-.71.27-1.47.62-2.33.37-.84.93-1.8,1.97-2.62l.19-.15.1-.08.05-.04c.11-.06-.21.1.25-.14h.01s.21-.15.21-.15l.21-.14c.07-.05.1-.09.34-.18.38-.16.78-.29,1.19-.4.4-.11.62-.13.95-.18,1.21-.18,2.27-.06,3.22.1,1.92.33,3.53.94,4.99,1.55.74.32,1.44.6,2.08.9.31.14.62.28.88.38.15.06.26.1.36.13l.16.06h0c.08.03-.7-.2-.36-.1h.04s.07.02.07.02l.14.03,1.12.28.28.07h.12c.08,0,.16,0,.24,0,.25.06.78.04,1.24.06.91-.1,1.83-.23,2.66-.58.79-.37,1.59-.78,2.15-1.35.57-.56,1.1-1.2,1.35-1.96.07-.19.17-.38.23-.57.03-.2.06-.4.1-.6.12-.41.1-.81.1-1.22.07-.83-.16-1.57-.24-2.25-.37-1.26-.61-2.13-.61-2.13,0,0,.19.08.54.26.33.2.89.44,1.49.9.53.52,1.37,1.07,1.95,2.06.34.47.66,1,.88,1.65.13.32.24.65.36,1,.08.35.13.73.19,1.12.25,1.56-.04,3.36-.78,5.08-.75,1.73-2.05,3.24-3.64,4.48-1.61,1.21-3.56,2.02-5.63,2.4-1.06.11-2.05.3-3.32.14l-.91-.09-.45-.05-.28-.06-1.12-.25-.14-.03-.52-.15-.38-.15c-.26-.1-.51-.2-.71-.29-.45-.19-.83-.38-1.21-.57-.74-.35-1.41-.76-2.03-1.09-1.25-.69-2.38-1.31-3.25-1.7-.44-.21-.8-.31-.97-.4-.02-.02-.15-.05-.08-.08.08-.03.15-.09.2-.17.07-.07-.05-.02-.13,0l-.24.07-.25.07h-.01c.45-.23.13-.06.23-.11h0s0,0,0,0h-.01c-.19-.25-.94.35-1.45,1.13-.55.78-1.01,1.7-1.43,2.53-.43.87-.81,1.62-1.12,2.25-.3.64-.62,1.15-.81,1.48-.22.33-.34.5-.34.5Z"/></clipPath></defs><g class="cls-7"><g id="Calque_3"><circle class="cls-5" cx="85" cy="85" r="83.12"/><path d="M108.66,156.51s-.05-.2-.15-.59c-.08-.37-.26-.91-.4-1.61-.15-.69-.35-1.55-.46-2.56-.12-1.02-.2-2.19-.01-3.59.09-.71.27-1.47.62-2.33.37-.84.93-1.8,1.97-2.62l.19-.15.1-.08.05-.04c.11-.06-.21.1.25-.14h.01s.21-.15.21-.15l.21-.14c.07-.05.1-.09.34-.18.38-.16.78-.29,1.19-.4.4-.11.62-.13.95-.18,1.21-.18,2.27-.06,3.22.1,1.92.33,3.53.94,4.99,1.55.74.32,1.44.6,2.08.9.31.14.62.28.88.38.15.06.26.1.36.13l.16.06h0c.08.03-.7-.2-.36-.1h.04s.07.02.07.02l.14.03,1.12.28.28.07h.12c.08,0,.16,0,.24,0,.25.06.78.04,1.24.06.91-.1,1.83-.23,2.66-.58.79-.37,1.59-.78,2.15-1.35.57-.56,1.1-1.2,1.35-1.96.07-.19.17-.38.23-.57.03-.2.06-.4.1-.6.12-.41.1-.81.1-1.22.07-.83-.16-1.57-.24-2.25-.37-1.26-.61-2.13-.61-2.13,0,0,.19.08.54.26.33.2.89.44,1.49.9.53.52,1.37,1.07,1.95,2.06.34.47.66,1,.88,1.65.13.32.24.65.36,1,.08.35.13.73.19,1.12.25,1.56-.04,3.36-.78,5.08-.75,1.73-2.05,3.24-3.64,4.48-1.61,1.21-3.56,2.02-5.63,2.4-1.06.11-2.05.3-3.32.14l-.91-.09-.45-.05-.28-.06-1.12-.25-.14-.03-.52-.15-.38-.15c-.26-.1-.51-.2-.71-.29-.45-.19-.83-.38-1.21-.57-.74-.35-1.41-.76-2.03-1.09-1.25-.69-2.38-1.31-3.25-1.7-.44-.21-.8-.31-.97-.4-.02-.02-.15-.05-.08-.08.08-.03.15-.09.2-.17.07-.07-.05-.02-.13,0l-.24.07-.25.07h-.01c.45-.23.13-.06.23-.11h0s0,0,0,0h-.01c-.19-.25-.94.35-1.45,1.13-.55.78-1.01,1.7-1.43,2.53-.43.87-.81,1.62-1.12,2.25-.3.64-.62,1.15-.81,1.48-.22.33-.34.5-.34.5Z"/><g class="cls-12"><rect class="cls-6" x="114.48" y="136.91" width="3.69" height="20.48" transform="translate(-18.82 17.07) rotate(-7.77)"/><rect class="cls-6" x="121.38" y="134.74" width="3.68" height="22.87" transform="translate(-28.43 29.76) rotate(-12.36)"/><rect class="cls-6" x="127.54" y="132.68" width="3.69" height="20.48" transform="translate(-51.95 77.46) rotate(-28)"/><rect class="cls-6" x="134.07" y="130.57" width="3.69" height="20.48" transform="translate(-59.23 155.62) rotate(-50.35)"/></g><path class="cls-13" d="M118,121.63c-5.32-11.87-8.35-15.69-12.51-24.57l-19.31-3.29-19.31,3.29c-4.16,8.88-7.19,12.71-12.51,24.57-7.07,15.8,1.18,31.65,9.4,41.56h13.94c-.39-1.51-.61-3.16-.61-4.89,0-7.21,3.76-13.07,8.39-13.07.23,0,.46.03.69.05.23-.03.46-.05.69-.05,4.64,0,8.39,5.85,8.39,13.07,0,1.73-.22,3.38-.61,4.89h13.94c8.23-9.91,16.48-25.76,9.4-41.56Z"/><path d="M112.48,163.19c0-.18.03-.35.03-.54,0-6.01-4.87-10.88-10.88-10.88s-10.88,4.87-10.88,10.88c0,.18.02.36.03.54h21.7Z"/><path d="M80.54,163.19c0-.18.03-.35.03-.54,0-6.01-4.87-10.88-10.88-10.88s-10.88,4.87-10.88,10.88c0,.18.02.36.03.54h21.7Z"/><path d="M64.19,124.86s-12.75,9.7-1.45,20.32c11.3,10.61,1.14-12.57,1.45-20.32Z"/><path d="M108.27,124.86s12.75,9.7,1.45,20.32c-11.31,10.61-1.14-12.57-1.45-20.32Z"/><path class="cls-8" d="M143.75,30.29c2.69-1.13,5.34.18,6.15,2.96,4.56,15.71,2.53,31.35-10.81,41.58-.58.45-1.19.71-1.79.84-6.35,4.55-17.71-5.73-19.17-12.71-3.01-14.42,13.92-27.79,25.62-32.68Z"/><path class="cls-9" d="M138.99,42.13c1.52-.64,3.02.1,3.47,1.68,2.58,8.87,1.43,17.71-6.11,23.49-.33.25-.67.4-1.01.47-3.59,2.57-10-3.24-10.83-7.18-1.7-8.14,7.86-15.69,14.47-18.46Z"/><path class="cls-3" d="M27.51,30.29c-2.69-1.13-5.34.18-6.15,2.96-4.56,15.71-2.53,31.35,10.81,41.58.58.45,1.19.71,1.79.84,6.35,4.55,17.71-5.73,19.16-12.71,3.01-14.42-13.92-27.79-25.62-32.68Z"/><path class="cls-9" d="M32.26,42.13c-1.52-.64-3.02.1-3.47,1.68-2.58,8.87-1.43,17.71,6.1,23.49.33.25.67.4,1.01.47,3.59,2.57,10.01-3.24,10.83-7.18,1.7-8.14-7.86-15.69-14.47-18.46Z"/><path class="cls-2" d="M148.65,83.52c-13.33-17.59-45.19-38.77-62.53-37.7-17.34-1.07-49.2,20.11-62.53,37.7-4.8,6.34-10.74,14.27-8.41,21.58,2.43,7.63,23.35,10.56,36.32,18.42,13.76,8.34,24.76,12.34,34.62,12.87,9.86-.53,20.87-4.53,34.63-12.87,12.97-7.86,33.88-10.79,36.32-18.42,2.33-7.31-3.61-15.25-8.41-21.58Z"/><path class="cls-9" d="M24.38,112.29c10.79-11.75,19.9-29.4,36.92-33.23,5.99-1.2,14.14-2.88,16.3,4.32,2.4,8.15-5.27,14.38-9.83,20.14-3.84,4.55-7.43,8.63-11.51,12.7-1.44,1.44-3.11,4.08-4.79,5.28-2.4,1.68-2.88.72-6.23-.48l-20.86-8.72Z"/><path class="cls-9" d="M147.59,112.29c-10.79-11.75-19.9-29.4-36.92-33.23-5.99-1.2-14.15-2.88-16.3,4.32-2.4,8.15,5.27,14.38,9.83,20.14,3.84,4.55,7.43,8.63,11.51,12.7,1.44,1.44,3.12,4.08,4.79,5.28,2.4,1.68,2.88.72,6.23-.48l20.86-8.72Z"/><path class="cls-11" d="M69.69,89.9c0,3.65-2.96,6.61-6.61,6.61s-6.61-2.96-6.61-6.61,2.96-6.61,6.61-6.61,6.61,2.96,6.61,6.61Z"/><path class="cls-9" d="M68.54,90.01c0,2.73-2.22,4.95-4.95,4.95s-4.95-2.22-4.95-4.95,2.21-4.95,4.95-4.95,4.95,2.22,4.95,4.95Z"/><path class="cls-8" d="M66.21,89.89c0,.63-.51,1.14-1.14,1.14s-1.14-.51-1.14-1.14.51-1.14,1.14-1.14,1.14.51,1.14,1.14Z"/><path class="cls-11" d="M115.99,89.9c0,3.65-2.96,6.61-6.61,6.61s-6.61-2.96-6.61-6.61,2.96-6.61,6.61-6.61,6.61,2.96,6.61,6.61Z"/><path class="cls-9" d="M114.83,90.01c0,2.73-2.21,4.95-4.95,4.95s-4.95-2.22-4.95-4.95,2.22-4.95,4.95-4.95,4.95,2.22,4.95,4.95Z"/><path class="cls-8" d="M112.51,89.89c0,.63-.51,1.14-1.14,1.14s-1.14-.51-1.14-1.14.51-1.14,1.14-1.14,1.14.51,1.14,1.14Z"/><path class="cls-10" d="M78.08,70.7c5.77,11.86,5.53,51.7,5.53,51.7l2.58,2.5V45.23h-.05c-4.72-.29-10.51,1.07-16.71,3.56-3.57,1.63-7.48,3.51-11.45,5.56-13.39,7.57-26.59,18.89-34.12,28.82,0,0,48.46-24.33,54.23-12.47Z"/><path class="cls-10" d="M114.36,54.35c-3.97-2.06-7.88-3.93-11.45-5.56-6.2-2.48-12-3.85-16.71-3.56h-.05l.02,79.67,2.55-2.5s-.24-39.83,5.53-51.7c5.77-11.86,54.39,12.81,54.39,12.81-7.53-9.94-20.89-21.6-34.28-29.17Z"/><path d="M73.4,123.33c.36,6.51,12.72,8.01,12.72,8.01,0,0,12.36-1.5,12.72-8.01.36-6.51-25.8-6.51-25.44,0Z"/><path class="cls-8" d="M96.67,123.01c0,.76-.62,1.38-1.38,1.38s-1.38-.62-1.38-1.38.62-1.38,1.38-1.38,1.38.62,1.38,1.38Z"/><path class="cls-4" d="M86.11,45.21c-4.71-.29-10.5,1.08-16.69,3.55-3.58,1.64-7.48,3.51-11.46,5.56-1.56.88-3.12,1.82-4.67,2.8-1.7-12.08-15.69-22.63-25.79-26.86-2.69-1.13-5.34.18-6.15,2.96-4.5,15.49-2.56,30.9,10.27,41.13-2.97,2.96-5.61,5.93-7.78,8.79,0,0,0,0,.01,0-.09.12-.19.24-.28.35-4.8,6.33-10.74,14.28-8.41,21.58.92,2.88,4.48,5.09,9.24,7.15-.01.01-.03.03-.04.05l20.86,8.72c2.2.78,3.16,1.45,4.24,1.36.69.37,1.37.75,2.02,1.15.59.36,1.16.7,1.74,1.04-4.08,12.28.55,24.36,6.64,33.43-.68,1.42-1.06,3-1.06,4.67,0,.18.02.36.03.54h21.7c0-.18.03-.35.03-.54,0-3-1.22-5.72-3.18-7.68.95-5.6,4.21-9.74,8.11-9.74.21,0,.42.02.62.05V45.21Z"/></g></g></svg>