<?xml version="1.0" encoding="UTF-8"?><svg xmlns="http://www.w3.org/2000/svg" viewBox="0 0 170 170"><defs><style>.cls-1{mix-blend-mode:multiply;opacity:.3;}.cls-2{isolation:isolate;}.cls-3{fill:#774325;}.cls-4{fill:#a75c2f;}.cls-5{fill:#9bc250;}.cls-6{fill:#fff;}.cls-7{fill:#262424;}.cls-8{fill:#93532c;}.cls-9{fill:#814828;}.cls-10{fill:#d5d3bd;}</style></defs><g class="cls-2"><g id="Calque_3"><circle class="cls-5" cx="85" cy="85" r="83.12"/><path class="cls-4" d="M159.78,112.61s-47.94-15.04-54.76,34.59c47.75,15.16,54.76-34.59,54.76-34.59Z"/><path class="cls-6" d="M159.81,112.65s-.02,0-.07-.02c0-.04,0-.07,0-.07,0,0-6.82-2.14-15.68-2.14,3.99,1.57,5.92,6.22,1.21,11.34,0,0,.2-.17.29-.18l-.29.18c6.65-2.05,10.02,1.69,9.72,5.97,3.8-8,4.8-15.08,4.8-15.08Z"/><path class="cls-9" d="M117.3,125.68c0-11.01-2.3-21.19-6.18-29.49h-53.47c-3.89,8.3-6.18,18.48-6.18,29.49,0,16.18,4.95,30.58,12.64,39.84h16.46c-1.27-1.71-2.09-4.25-2.09-7.09,0-2.03.41-3.9,1.11-5.43h9.6c.7,1.53,1.11,3.41,1.11,5.43,0,2.85-.81,5.38-2.09,7.09h16.46c7.69-9.26,12.64-23.66,12.64-39.84Z"/><path class="cls-8" d="M136.83,68.99c7.29-14.08,8.83-28.92,5.21-44.3-7.39,3.74-14.48,8.6-20.65,14.14-5.54,4.98-8.82,11.54-13.23,17.42,2.91,4.04,22.33,17.67,28.01,13.56"/><path class="cls-3" d="M132.72,63.41c4.52-8.72,5.47-17.92,3.23-27.45-4.58,2.32-8.97,5.33-12.79,8.77-3.44,3.09-5.47,7.15-8.2,10.8,1.8,2.51,13.84,10.95,17.36,8.4"/><path class="cls-8" d="M35.08,67.13c-7.29-14.07-8.83-28.92-5.2-44.3,7.39,3.74,14.48,8.6,20.65,14.14,5.54,4.98,8.82,11.54,13.23,17.42-2.91,4.04-22.33,17.67-28.01,13.56"/><path class="cls-3" d="M39.18,61.54c-4.52-8.72-5.48-17.92-3.23-27.45,4.58,2.32,8.97,5.33,12.8,8.77,3.44,3.09,5.47,7.15,8.2,10.8-1.8,2.51-13.84,10.95-17.36,8.4"/><path class="cls-4" d="M149.37,77.54c-24.2-6.58-35.41-33.35-64.1-27.71h-2.38c-28.69-5.64-39.89,21.14-64.1,27.71-1.34,11.27,25.1,24.89,33.62,29.12,9.32,4.65,21.26,15.72,31.5,17.32,0,.02,0,.04,0,.06.05,0,.1-.02.16-.03.05,0,.1.02.16.03,0-.02,0-.04,0-.06,10.24-1.6,22.19-12.67,31.5-17.32,8.52-4.23,34.96-17.85,33.62-29.12Z"/><path class="cls-10" d="M53.08,70.95v-.05s-.49.21-.49.21c-.09.03-.19.06-.28.09-.29.11-.56.23-.83.37l-12.18,5.03,10.34,9.46h0c2.38,2.08,5.79,2.81,8.95,1.61,4.55-1.74,6.82-6.83,5.09-11.37-1.64-4.29-6.27-6.56-10.6-5.34Z"/><path class="cls-10" d="M112.44,70.9l-.02-.05.52.16c.1.02.19.04.28.06.3.08.59.18.87.28l12.62,3.79-9.35,10.44h0c-2.16,2.3-5.48,3.37-8.74,2.49-4.7-1.27-7.47-6.11-6.2-10.81,1.2-4.43,5.58-7.15,10.02-6.37Z"/><path class="cls-7" d="M60.32,79.43c0,2.42-1.97,4.39-4.39,4.39s-4.39-1.97-4.39-4.39,1.97-4.39,4.39-4.39,4.39,1.97,4.39,4.39Z"/><path class="cls-6" d="M57.88,78.69c0,.46-.37.82-.82.82s-.82-.37-.82-.82.37-.82.82-.82.82.37.82.82Z"/><path class="cls-7" d="M114.93,79.43c0,2.42-1.97,4.39-4.39,4.39s-4.39-1.97-4.39-4.39,1.97-4.39,4.39-4.39,4.39,1.97,4.39,4.39Z"/><path class="cls-6" d="M112.49,78.69c0,.46-.37.82-.83.82s-.82-.37-.82-.82.37-.82.82-.82.83.37.83.82Z"/><path class="cls-10" d="M78.38,115.41s2-21.23-50.39-23.65c0,0,33.06,25.53,49.61,32.28,16.55,6.76.79-8.63.79-8.63Z"/><path class="cls-6" d="M90.23,115.41s-2-21.23,50.39-23.65c0,0-33.06,25.53-49.61,32.28-16.55,6.76-.79-8.63-.79-8.63Z"/><path class="cls-7" d="M90.12,120.69c0,4.78-2.7,8.65-6.04,8.65s-6.04-3.87-6.04-8.65,2.7-8.65,6.04-8.65,6.04,3.87,6.04,8.65Z"/><path class="cls-6" d="M88.17,118.48c0,1.25-.71,2.26-1.58,2.26s-1.58-1.01-1.58-2.26.71-2.26,1.58-2.26,1.58,1.01,1.58,2.26Z"/><path class="cls-4" d="M78.67,155.89c-1.35-.66-2.85-1.04-4.45-1.04-5.61,0-10.17,4.55-10.17,10.17,0,.17.02.33.03.5h16.66c-1.38-1.71-2.27-4.36-2.27-7.34,0-.79.08-1.55.2-2.29Z"/><path class="cls-4" d="M94.55,154.85c-1.6,0-3.11.38-4.45,1.04.12.74.2,1.5.2,2.29,0,2.98-.89,5.63-2.27,7.34h16.67c0-.17.03-.33.03-.5,0-5.62-4.55-10.17-10.17-10.17Z"/><path class="cls-1" d="M79.67,152.99h4.57V49.83h-1.26c-8.21-1.61-14.99-.57-21.05,1.9-3.53-5.14-6.61-10.52-11.33-14.76-6.17-5.54-13.26-10.4-20.65-14.14-3.63,15.38-2.09,30.23,5.21,44.3l.66.83c.29.21.62.36.98.48-5.4,3.85-11.15,7.27-17.92,9.1-.68,5.68,5.71,11.96,13.3,17.34,4.62,3.46,12.57,9.3,21.01,14.97-1.07,4.98-1.65,10.3-1.65,15.83,0,16.16,4.94,30.54,12.61,39.8,0,.01,0,.03,0,.04h16.66c-1.36-1.68-2.24-4.27-2.26-7.2.01-1.99.42-3.82,1.1-5.33Z"/></g></g></svg>