<?xml version="1.0" encoding="UTF-8"?><svg xmlns="http://www.w3.org/2000/svg" viewBox="0 0 170 170"><defs><style>.cls-1{fill:#c3918f;}.cls-2{mix-blend-mode:multiply;opacity:.2;}.cls-3{fill:#dddede;}.cls-4{fill:#978b80;}.cls-5{isolation:isolate;}.cls-6{fill:#f9fafc;}.cls-7{fill:#8b8076;}.cls-8{fill:#fff;}.cls-9{fill:#262424;}.cls-10{fill:#f8f9fa;}.cls-11{fill:#3b0a06;}.cls-12{fill:#e2a5a4;}</style></defs><g class="cls-5"><g id="Calque_3"><circle class="cls-11" cx="85" cy="85" r="83.12"/><path class="cls-8" d="M115.11,148.94c-2.79,0-4.63-.47-4.68-.49l1.08-4.02c.53.14,12.99,3.23,20.97-10.1l3.57,2.14c-6.37,10.65-15.47,12.47-20.93,12.47Z"/><path class="cls-4" d="M134.27,127.66l-.03-.02.36-.08c.06-.02.12-.04.19-.06.2-.05.4-.09.6-.12l8.61-1.91-2.05,9.16h0c-.51,2.05-2.1,3.76-4.3,4.31-3.16.79-6.36-1.13-7.15-4.29-.75-2.98.92-6,3.77-7Z"/><path class="cls-6" d="M112.7,91.82h-55.13c-4.01,8.56-6.37,19.06-6.37,30.41,0,16.68,5.1,31.52,13.03,41.07h13.43c-.38-1.46-.59-3.04-.59-4.71,0-6.95,3.62-12.59,8.09-12.59s8.09,5.64,8.09,12.59c0,1.67-.21,3.26-.59,4.71h13.39c7.93-9.55,13.03-24.39,13.03-41.07,0-11.35-2.37-21.85-6.37-30.41Z"/><path class="cls-4" d="M59.45,14.98s-13.03,10.84-2.75,22.57l9.5-5.01s-10.91-3.79-6.75-17.56Z"/><path class="cls-4" d="M110.07,14.98s13.03,10.84,2.75,22.57l-9.5-5.01s10.91-3.79,6.75-17.56Z"/><path class="cls-3" d="M56.71,41.98s-9.55-11.3-35.82-9.16c0,0,7.33,16.96,22.97,21.43l12.85-12.27Z"/><path class="cls-12" d="M52.62,44.26s-5.76-6.82-21.63-5.53c0,0,4.43,10.24,13.87,12.94l7.76-7.41Z"/><path class="cls-10" d="M113.75,41.98s9.55-11.3,35.82-9.16c0,0-7.33,16.96-22.97,21.43l-12.85-12.27Z"/><path class="cls-12" d="M117.84,44.26s5.77-6.82,21.63-5.53c0,0-4.42,10.24-13.87,12.94l-7.76-7.41Z"/><path class="cls-8" d="M136.34,81.41c0,29.12-22.93,52.72-51.21,52.72s-51.21-23.6-51.21-52.72,22.93-52.72,51.21-52.72,51.21,23.6,51.21,52.72Z"/><path class="cls-12" d="M138.6,107.11c0,17.43-24.09,31.56-53.8,31.56s-53.81-14.13-53.81-31.56,24.09-28.86,53.81-28.86,53.8,11.43,53.8,28.86Z"/><path class="cls-1" d="M104.31,117.93c0,2.72-2.2,4.92-4.92,4.92s-4.93-2.2-4.93-4.92,2.21-4.93,4.93-4.93,4.92,2.21,4.92,4.93Z"/><path class="cls-1" d="M75.09,117.93c0,2.72-2.21,4.92-4.93,4.92s-4.92-2.2-4.92-4.92,2.2-4.93,4.92-4.93,4.93,2.21,4.93,4.93Z"/><circle class="cls-2" cx="105.87" cy="60.21" r="10.78"/><path class="cls-7" d="M76.81,65.46c3.88-4.26,2.1-9.41-2.01-12.84-5.05-4.2-12.34-6.04-18.89-5.18-5.97.79-10.78,3.93-15.28,7.5-3.54,6.4-5.81,13.65-6.47,21.39,7.85-.55,15.72-1.16,23.44-2.69,6.52-1.29,14.63-3.14,19.22-8.19Z"/><path class="cls-9" d="M71.72,60.39c0,4.35-3.52,7.87-7.87,7.87s-7.87-3.53-7.87-7.87,3.52-7.87,7.87-7.87,7.87,3.53,7.87,7.87Z"/><path class="cls-8" d="M68.02,60.21c0,1-.81,1.82-1.82,1.82s-1.82-.81-1.82-1.82.81-1.82,1.82-1.82,1.82.81,1.82,1.82Z"/><path class="cls-9" d="M113.75,60.39c0,4.35-3.52,7.87-7.87,7.87s-7.87-3.53-7.87-7.87,3.53-7.87,7.87-7.87,7.87,3.53,7.87,7.87Z"/><circle class="cls-8" cx="108.23" cy="60.21" r="1.82"/><path class="cls-9" d="M68.02,152.3c-5.79,0-10.48,4.69-10.48,10.48,0,.18.02.34.03.52h6.59c.06-2.09,1.76-3.76,3.86-3.76s3.8,1.67,3.86,3.76h6.59c.01-.17.03-.34.03-.52,0-5.79-4.69-10.48-10.48-10.48Z"/><path class="cls-9" d="M100.35,152.3c-5.79,0-10.48,4.69-10.48,10.48,0,.18.02.34.03.52h6.59c.06-2.09,1.76-3.76,3.86-3.76s3.8,1.67,3.86,3.76h6.59c0-.17.03-.34.03-.52,0-5.79-4.69-10.48-10.48-10.48Z"/><path class="cls-2" d="M85.21,28.63s-.06,0-.09,0c-6.75,0-13.18,1.36-19.08,3.8-1.29-.52-10.47-4.68-6.6-17.5,0,0-13.03,10.84-2.75,22.57h0c-.94.65-1.86,1.34-2.76,2.05-4.45-3.19-14.64-8.29-33.06-6.79,0,0,6.65,15.37,20.8,20.7-.31.52-.61,1.04-.91,1.56-.11.09-.21.17-.32.26-.89,1.71-1.69,3.47-2.39,5.29-2.66,6.38-4.14,13.4-4.14,20.79,0,4.63.58,9.11,1.67,13.39-2.95,3.63-4.6,7.77-4.6,12.31,0,10.13,8.15,19.14,20.81,24.92,1.15,9.29,3.91,17.69,7.81,24.53-1.29,1.74-2.06,3.89-2.06,6.23,0,.18.02.34.03.52h6.59s0-.05,0-.07c.02.02.04.05.05.07h14.26c.01-.17.03-.34.03-.52,0-1.91-.52-3.69-1.41-5.23.34-6.47,3.81-11.56,8.05-11.56.02,0,.05,0,.07,0V28.63Z"/></g></g></svg>